<svg xmlns="http://www.w3.org/2000/svg" xmlns:xlink="http://www.w3.org/1999/xlink"><defs><clipPath id="a"><path fill="#fff" transform="translate(0 .357)" d="M0 0h11v10H0z"/></clipPath><clipPath id="a"><path fill="#fff" transform="rotate(-180 5.5 5.178)" d="M0 0h11v10H0z"/></clipPath><clipPath id="a"><path fill="#fff" transform="translate(0 .357)" d="M0 0h11v11H0z"/></clipPath><clipPath id="a"><path fill="#fff" transform="translate(0 .357)" d="M0 0h47v31H0z"/></clipPath><clipPath id="a"><path fill="#fff" transform="translate(0 .357)" d="M0 0h145v36H0z"/></clipPath><clipPath id="a"><path fill="#fff" transform="translate(0 .357)" d="M0 0h80v7H0z"/></clipPath><clipPath id="a"><path fill="#fff" transform="translate(0 .357)" d="M0 0h4v12H0z"/></clipPath><clipPath id="a"><path fill="#fff" transform="translate(0 .357)" d="M0 0h15v12H0z"/></clipPath><clipPath id="a"><path fill="#fff" transform="translate(0 .357)" d="M0 0h40v40H0z"/></clipPath><clipPath id="a"><path fill="#fff" transform="translate(0 .357)" d="M0 0h115v34H0z"/></clipPath><clipPath id="a"><path fill="#fff" transform="translate(0 .357)" d="M0 0h48v54H0z"/></clipPath><clipPath id="a"><path fill="#fff" transform="translate(0 .357)" d="M0 0h4v7H0z"/></clipPath><clipPath id="a"><path fill="#fff" transform="translate(0 .357)" d="M0 0h16v14H0z"/></clipPath><clipPath id="a"><path fill="#fff" transform="translate(0 .357)" d="M0 0h15v12H0z"/></clipPath><clipPath id="a"><path fill="#fff" transform="translate(0 .357)" d="M0 0h16v16H0z"/></clipPath><clipPath id="a"><path fill="#fff" transform="translate(0 .357)" d="M0 0h10v12H0z"/></clipPath><clipPath id="a"><path fill="#fff" transform="translate(0 .357)" d="M0 0h16v16H0z"/></clipPath><clipPath id="a"><path fill="#fff" transform="translate(0 .357)" d="M0 0h20v60H0z"/></clipPath><clipPath id="a"><path fill="#fff" transform="rotate(-180 4.5 9.178)" d="M0 0h9v18H0z"/></clipPath><clipPath id="b"><path fill="#fff" transform="translate(0 .357)" d="M0 0h9v18H0z"/></clipPath><clipPath id="a"><path fill="#fff" transform="rotate(-180 8 8.178)" d="M0 0h16v16H0z"/></clipPath><clipPath id="b"><path fill="#fff" transform="translate(0 .357)" d="M0 0h16v16H0z"/></clipPath><clipPath id="a"><path fill="#fff" transform="rotate(-180 8 7.178)" d="M0 0h16v14H0z"/></clipPath><clipPath id="b"><path fill="#fff" transform="translate(0 .357)" d="M0 0h16v14H0z"/></clipPath><clipPath id="a"><path fill="#fff" transform="translate(0 .357)" d="M0 0h18v16H0z"/></clipPath><clipPath id="a"><path fill="#fff" transform="translate(0 .357)" d="M0 0h10v10H0z"/></clipPath><clipPath id="a"><path fill="#fff" transform="translate(0 .357)" d="M0 0h13v13H0z"/></clipPath><clipPath id="a"><path fill="#fff" transform="translate(0 .357)" d="M0 0h14v6H0z"/></clipPath></defs><symbol id="arrow-down"><g fill="none"><path d="m7.1 7.182 4.7-4.5c.3-.3.3-.8 0-1.1-.3-.3-.8-.3-1.1 0l-4.2 4-4.2-4c-.3-.3-.8-.3-1.1 0-.1.2-.2.4-.2.6 0 .2.1.4.2.5l4.7 4.5c.4.3.8.3 1.2 0Z" fill="#000"/></g></symbol><symbol id="arrow-down2"><g fill="none"><g clip-path="url(#a)"><path d="m5.5 10.357-5-10h10" fill="#000"/></g></g></symbol><symbol id="arrow-up"><g fill="none"><g clip-path="url(#a)"><path d="m5.5.357 5 10H.5" fill="#000"/></g></g></symbol><symbol id="categories-band"><g fill="none"><path d="M98.967 5.074c.752 1.441 1.209 3.08 1.209 4.818v21.102c0 4.616-3.092 8.527-7.246 9.9-1.325 3.987-3.778 7.854-8.051 10.432-8.676 5.231-31.124 4.837-31.198 4.837-.078 0-22.513.395-31.189-4.837-4.216-2.545-6.708-6.347-8.042-10.279-4.418-1.209-7.756-5.25-7.756-10.053v-21.1c0-1.689.427-3.283 1.139-4.694C4.17 6.11 0 7.918 0 11.434v29.983C0 51.668 11.839 65.85 53.657 65.85c41.82 0 53.657-14.182 53.657-24.433V11.434c-.001-3.684-4.576-5.494-8.347-6.36Z" fill="#363636"/><path d="M20.561 39.46h65.523c5.564 0 10.074-4.514 10.074-10.078V10.935C96.158 5.372 91.648.86 86.084.86H20.561c-5.564 0-10.075 4.511-10.075 10.075v18.447c0 5.564 4.511 10.077 10.075 10.077Zm63.134-28.992a1.57 1.57 0 1 1 0 3.139 1.57 1.57 0 0 1 0-3.139Zm0 4.04a1.569 1.569 0 1 1 0 3.137 1.569 1.569 0 0 1 0-3.138Zm0 4.038a1.568 1.568 0 1 1 .001 3.137 1.568 1.568 0 0 1-.001-3.137Zm0 3.827a1.57 1.57 0 1 1-.001 3.14 1.57 1.57 0 0 1 .001-3.14Zm0 4.04a1.568 1.568 0 1 1 .001 3.136 1.568 1.568 0 0 1-.001-3.137Zm-4.039-15.945c.867 0 1.568.703 1.568 1.57a1.568 1.568 0 1 1-3.136 0c0-.868.703-1.57 1.568-1.57Zm0 15.944a1.568 1.568 0 1 1 0 3.136 1.568 1.568 0 0 1 0-3.136Zm-4.037-15.944a1.57 1.57 0 1 1-.003 3.14 1.57 1.57 0 0 1 .003-3.14Zm0 4.04a1.57 1.57 0 1 1-.003 3.138 1.57 1.57 0 0 1 .003-3.139Zm0 4.038a1.569 1.569 0 1 1-.002 3.138 1.569 1.569 0 0 1 .002-3.138Zm0 3.827a1.568 1.568 0 1 1 0 3.138 1.568 1.568 0 0 1 0-3.138Zm0 4.04a1.569 1.569 0 1 1-.002 3.137 1.569 1.569 0 0 1 .002-3.138Zm-7.654-15.945c.867 0 1.568.703 1.568 1.57a1.568 1.568 0 1 1-3.136 0 1.568 1.568 0 0 1 1.568-1.57Zm0 8.078c.867 0 1.568.702 1.568 1.57a1.568 1.568 0 1 1-1.568-1.57Zm0 3.881a1.569 1.569 0 1 1-.002 3.136 1.569 1.569 0 0 1 .002-3.136Zm0 3.985a1.568 1.568 0 1 1 0 3.136 1.568 1.568 0 0 1 0-3.136Zm-4.039-15.944a1.57 1.57 0 1 1 0 3.14 1.57 1.57 0 0 1 0-3.14Zm0 8.078a1.57 1.57 0 1 1 .001 3.139 1.57 1.57 0 0 1-.001-3.139Zm0 7.866a1.57 1.57 0 1 1 .001 3.139 1.57 1.57 0 0 1-.001-3.139Zm-4.038-15.944a1.57 1.57 0 0 1 0 3.14 1.568 1.568 0 0 1-1.568-1.57 1.567 1.567 0 0 1 1.568-1.57Zm0 4.04a1.57 1.57 0 1 1-.001 3.135 1.57 1.57 0 0 1 .001-3.136Zm0 4.038a1.57 1.57 0 1 1-.001 3.14 1.57 1.57 0 0 1 .001-3.14Zm0 7.866a1.57 1.57 0 0 1 0 3.137 1.569 1.569 0 0 1 0-3.137Zm-8.29-15.944a1.57 1.57 0 1 1 0 3.139 1.57 1.57 0 0 1 0-3.139Zm0 4.04a1.569 1.569 0 1 1 0 3.137 1.569 1.569 0 0 1 0-3.138Zm0 4.038a1.568 1.568 0 1 1 .001 3.137 1.568 1.568 0 0 1-.001-3.137Zm0 3.881a1.568 1.568 0 1 1 0 3.137 1.569 1.569 0 0 1 0-3.137Zm0 3.985a1.568 1.568 0 1 1 .001 3.137 1.568 1.568 0 0 1-.001-3.137Zm-4.039-11.905a1.568 1.568 0 1 1 0 3.136 1.568 1.568 0 0 1 0-3.136Zm-8.502-.212a1.57 1.57 0 1 1-.001 3.135 1.57 1.57 0 0 1 .001-3.135Zm0 4.038a1.57 1.57 0 1 1-.003 3.141 1.57 1.57 0 0 1 .003-3.14Zm-4.039-8.078a1.57 1.57 0 1 1-.003 3.14 1.57 1.57 0 0 1 .003-3.14Zm0 4.04a1.57 1.57 0 1 1-.003 3.139 1.57 1.57 0 0 1 .003-3.139Zm0 4.038a1.57 1.57 0 1 1-.003 3.14 1.57 1.57 0 0 1 .003-3.14Zm0 4.04a1.569 1.569 0 1 1-.001 3.137 1.569 1.569 0 0 1 .001-3.137Zm-4.254-8.078a1.569 1.569 0 1 1 0 3.138 1.569 1.569 0 0 1 0-3.138Zm0 4.038a1.57 1.57 0 1 1 0 3.139 1.57 1.57 0 0 1 0-3.139Zm0 4.04a1.57 1.57 0 1 1-.001 3.14 1.57 1.57 0 0 1 .001-3.14Zm0 4.04a1.568 1.568 0 1 1 .001 3.136 1.568 1.568 0 0 1-.001-3.137ZM26.3 10.254a1.57 1.57 0 1 1 .002 3.136 1.57 1.57 0 0 1-.002-3.136Zm0 4.04a1.57 1.57 0 0 1 1.571 1.568 1.57 1.57 0 0 1-3.14 0 1.57 1.57 0 0 1 1.569-1.568Zm0 4.038a1.571 1.571 0 1 1 0 3.14 1.571 1.571 0 0 1 0-3.14Zm0 4.04a1.57 1.57 0 1 1 .003 3.135 1.57 1.57 0 0 1-.003-3.135Zm-4.037-8.078a1.57 1.57 0 1 1-.001 3.135 1.57 1.57 0 0 1 .001-3.135Zm0 4.038a1.57 1.57 0 0 1 0 3.14 1.57 1.57 0 0 1 0-3.14Z" fill="#363636"/></g></symbol><symbol id="categories-cam"><g fill="none"><path d="M53.349 1.49c0-.736-.578-1.49-1.311-1.49H9.053C8.32 0 7.672.754 7.672 1.49v3.522h45.676l.001-3.522ZM54.202 81.809h-9.597V71.426h-6.958v2.507H18.774c-.537-1.254-1.757-2.148-3.181-2.148H3.559C1.642 71.784 0 73.387 0 75.311v3.018c0 1.924 1.642 3.48 3.559 3.48h12.035c1.511 0 2.792-.896 3.269-2.326h18.785v2.326H28.13c-.533 0-1.01.437-1.01.972v3.172c0 .535.478 1.048 1.01 1.048h26.072c.533 0 .93-.513.93-1.048V82.78c0-.535-.397-.971-.93-.971ZM60.666 12.39a7.037 7.037 0 0 0-6.771-5.05H7.148C3.25 7.34 0 10.449 0 14.361v46.9c0 3.912 3.25 7.121 7.148 7.121h46.747c3.898 0 7.126-3.209 7.126-7.121V50.915a23.228 23.228 0 0 0 10.001-19.164c-.001-8.079-4.132-15.181-10.356-19.361ZM12.238 62.151c-3.259 0-5.901-2.65-5.901-5.921 0-3.27 2.642-5.922 5.901-5.922s5.902 2.652 5.902 5.922c0 3.271-2.643 5.921-5.902 5.921Zm5.961-32.605a1.42 1.42 0 0 1-1.418 1.422h-8.94a1.42 1.42 0 0 1-1.418-1.422v-14.16a1.42 1.42 0 0 1 1.418-1.423h8.939a1.42 1.42 0 0 1 1.418 1.423l.001 14.16Zm29.563 22.312c-11.076 0-20.057-9.01-20.057-20.123 0-11.113 8.98-20.124 20.057-20.124 11.077 0 20.058 9.01 20.058 20.124 0 11.114-8.981 20.123-20.058 20.123Z" fill="#363636"/><path d="M47.762 43.964c6.731 0 12.188-5.475 12.188-12.229s-5.457-12.229-12.188-12.229c-6.731 0-12.188 5.475-12.188 12.229s5.457 12.229 12.188 12.229ZM31.562 33.171a1.435 1.435 0 1 0 0-2.87 1.435 1.435 0 0 0 0 2.87ZM63.963 33.171a1.435 1.435 0 1 0 0-2.87 1.435 1.435 0 0 0 0 2.87ZM39.109 19.429a1.435 1.435 0 1 0 0-2.87 1.435 1.435 0 0 0 0 2.87ZM56.415 46.912c.79 0 1.43-.643 1.43-1.436 0-.793-.64-1.436-1.43-1.436-.79 0-1.43.643-1.43 1.436 0 .793.64 1.436 1.43 1.436ZM55.697 19a1.435 1.435 0 1 0 0-2.87 1.435 1.435 0 0 0 0 2.87ZM39.828 47.341a1.435 1.435 0 1 0 0-2.87 1.435 1.435 0 0 0 0 2.87Z" fill="#363636"/></g></symbol><symbol id="categories-monopod"><g fill="none"><path d="M82.821 4.011H3.331A3.188 3.188 0 0 0 .141 7.199v46.413a3.187 3.187 0 0 0 3.188 3.189h79.492a3.188 3.188 0 0 0 3.19-3.189V7.199a3.189 3.189 0 0 0-3.19-3.188ZM8.392 37.236h-.226a3.19 3.19 0 0 1-3.189-3.189v-7.283a3.188 3.188 0 0 1 3.19-3.188h.225v13.66Zm61.231 15.172H13.341V8.402h56.282v44.006ZM78.4 34.552a4.146 4.146 0 0 1-4.146-4.147 4.146 4.146 0 1 1 4.146 4.147ZM54.654 0H31.497v2.758h23.157V0ZM46.608 64.861v-2.973h8.046V59.13H31.498v2.758h8.045v35.246a6.068 6.068 0 0 0-3.635 5.559V117h14.335v-14.307a6.062 6.062 0 0 0-3.636-5.557v-27.99h4.796l5.051 1.213v-6.711l-5.05 1.213h-4.796Z" fill="#363636"/></g></symbol><symbol id="categories-quadro"><g fill="none"><path d="M12.052.258C6.507.745 1.838 1.85.575 2.93c-.722.617-.722.617-.232 1.157.644.72 3.713 1.645 7.247 2.236 3.998.668 12.51.693 13.724.051 1.212-.668 1.624-1.414 1.624-2.981 0-1.619-.62-2.416-2.218-2.853C19.274.154 14.942 0 12.052.258ZM25.774.488c-.129.283-.258 2.108-.258 4.112 0 4.061.156 3.778-2.192 3.933l-1.03.077-.259 5.089-1.186.283c-2.58.668-4 2.595-3.792 5.294.128 1.927 1.031 3.341 2.579 4.087 1.109.513 1.47.538 11.246.538 5.545 0 10.137.079 10.188.18.051.13-1.109 9.408-2.58 20.64-1.444 11.23-2.682 20.997-2.708 21.666-.051 1.617.827 2.62 2.348 2.62 1.237 0 2.012-.64 2.321-1.9.13-.514 1.496-10.334 3.018-21.822 1.522-11.463 2.863-20.869 2.94-20.869.104 0 1.084 1.413 2.193 3.136 2.94 4.626 2.4 4.317 7.636 4.317h4.358v5.63l-5.133.077c-4.72.077-5.21.127-5.881.615-1.573 1.157-1.625 1.415-1.625 10.977 0 9.534.026 9.792 1.522 11.05l.851.695h31.366l.85-.696c1.496-1.257 1.52-1.515 1.52-11.05 0-9.56-.05-9.819-1.622-10.976-.671-.488-1.161-.538-5.882-.615l-5.132-.077v-5.63h4.36c5.234 0 4.693.309 7.633-4.317 1.11-1.723 2.09-3.136 2.194-3.136.076 0 1.419 9.406 2.94 20.869 1.522 11.488 2.889 21.308 3.018 21.821.31 1.26 1.082 1.902 2.321 1.902 1.522 0 2.4-1.004 2.347-2.621-.026-.67-1.264-10.436-2.71-21.666-1.468-11.232-2.63-20.51-2.577-20.64.05-.101 4.641-.18 10.189-.18 9.776 0 10.136-.025 11.244-.538 1.548-.746 2.45-2.16 2.579-4.087.207-2.699-1.211-4.626-3.791-5.294l-1.187-.283-.256-5.089-1.032-.077c-2.347-.155-2.194.128-2.194-3.933 0-2.004-.128-3.829-.256-4.112-.207-.36-.543-.488-1.368-.488-.619 0-1.238.128-1.42.309-.206.205-.309 1.465-.309 3.932 0 2.467-.103 3.727-.31 3.932-.179.18-.901.308-1.649.308-1.626 0-1.651.052-1.651 3.11v2.287H32.48v-2.287c0-3.058-.025-3.11-1.65-3.11-.749 0-1.47-.129-1.65-.308-.208-.205-.31-1.465-.31-3.932 0-2.467-.104-3.727-.31-3.932C28.38.129 27.76 0 27.14 0c-.824 0-1.16.128-1.366.488Zm42.843 40.12c2.889.899 5.392 3.393 6.166 6.168.439 1.543.31 4.216-.284 5.784-.696 1.875-2.684 4.01-4.565 4.935-1.29.642-1.754.719-3.921.719s-2.631-.077-3.92-.719c-1.885-.926-3.87-3.06-4.567-4.935-.592-1.568-.722-4.24-.283-5.784.748-2.723 3.25-5.27 6.061-6.168 2.013-.642 3.3-.642 5.313 0Z" fill="#363636"/><path d="M63.794 44.438c-2.037.925-3.507 3.649-3.069 5.73.774 3.677 4.823 5.553 7.996 3.702 1.985-1.158 2.991-3.547 2.451-5.783-.568-2.39-2.734-4.138-5.16-4.138-.645 0-1.625.232-2.218.489ZM36.092.154c-3.92.668-4.513 1.131-4.513 3.444 0 1.825.464 2.416 2.268 2.956 1.55.462 7.172.514 10.5.128 6.86-.822 11.322-2.544 9.698-3.752-1.265-.9-4.902-1.876-9.054-2.39-2.475-.308-7.996-.54-8.9-.386ZM89.484.258C83.165.848 77.62 2.339 77.62 3.444c0 1.722 7.841 3.47 15.63 3.496 5.804 0 7.196-.643 7.196-3.342 0-1.824-.619-2.621-2.373-3.084C96.423.103 92.4 0 89.485.258ZM112.776.283c-1.78.231-3.018.77-3.43 1.491-.387.77-.31 2.904.154 3.572.928 1.31 1.652 1.465 7.068 1.465 3.662 0 5.802-.129 7.867-.488 3.534-.591 6.603-1.517 7.248-2.236.49-.54.49-.54-.233-1.157-1.341-1.13-5.958-2.185-11.916-2.672-3.481-.283-4.488-.283-6.758.025Z" fill="#363636"/></g></symbol><symbol id="categories-vr"><g fill="none"><path d="M84.131 32.639V20.003c0-1.309 1.045-2.37 2.335-2.37l8.326 1.581V11.02c0-2.355-1.708-3.431-4.202-4.265L67.403.175c1.616 1.391 1.89 2.04 1.89 4.396V49.78c0 2.356-.45 4.066-1.968 5.21l23.265-7.065c2.401-.833 4.202-4.216 4.202-6.572V33.44l-8.326 1.567c-1.29.002-2.335-1.06-2.335-2.368Z" fill="#363636"/><path d="m95.13 20.979-7.599-1.444c-1.008 0-1.824.829-1.824 1.851v9.868c0 1.023.816 1.852 1.824 1.852l7.598-1.431c1.154-.419 1.824-.829 1.824-1.852V22.83c0-1.022-.766-1.507-1.824-1.851ZM67.17 4.483c0-5.08-4.232-4.459-4.232-4.459S5.832 4.738 2.838 5.145C-.156 5.552.001 9.532.001 9.532v36.28c0 3.743 2.598 3.753 2.598 3.753l16.477 1.403L27.212 39.3s1.11-1.828 2.505-1.828c1.397 0 2.432 1.861 2.432 1.861l9.061 13.521s18.895 1.909 22.521 1.909c3.626-.001 3.44-5.024 3.44-5.024V4.483ZM12.982 37.192c-3.698 0-6.696-4.601-6.696-10.275s2.998-10.275 6.696-10.275c3.698 0 6.696 4.601 6.696 10.275s-2.998 10.275-6.696 10.275Zm36.158 1.426c-4.662 0-8.44-5.239-8.44-11.701 0-6.463 3.78-11.702 8.44-11.702 4.662 0 8.442 5.239 8.442 11.702 0 6.462-3.78 11.701-8.442 11.701Z" fill="#363636"/></g></symbol><symbol id="categories-watch"><g fill="none"><path d="M54.494 32.197h-1.515v-4.64c0-5.052-4.087-9.186-9.082-9.186H9.082C4.086 18.372 0 22.505 0 27.557v42.868c0 5.052 4.087 9.185 9.083 9.185h34.815c4.995 0 9.082-4.133 9.082-9.185V67.01h1.515a.764.764 0 0 0 .757-.764V52.467a.765.765 0 0 0-.757-.766H52.98v-8.788h1.515c.832 0 1.514-.688 1.514-1.531v-7.654a1.529 1.529 0 0 0-1.515-1.531Zm-20.412-3.109c2.926 0 5.299 2.398 5.299 5.358 0 2.96-2.373 5.358-5.299 5.358s-5.298-2.398-5.298-5.358c0-2.96 2.372-5.358 5.298-5.358Zm-15.137 0c2.925 0 5.298 2.398 5.298 5.358 0 2.96-2.373 5.358-5.298 5.358-2.926 0-5.298-2.398-5.298-5.358 0-2.96 2.372-5.358 5.298-5.358ZM5.297 49.397c0-2.959 2.371-5.358 5.298-5.358 2.926 0 5.298 2.399 5.298 5.358 0 2.959-2.373 5.358-5.298 5.358-2.927.001-5.298-2.399-5.298-5.358Zm13.648 19.497c-2.926 0-5.298-2.398-5.298-5.358 0-2.96 2.372-5.358 5.298-5.358 2.925 0 5.298 2.398 5.298 5.358 0 2.96-2.373 5.358-5.298 5.358Zm1.49-19.903c0-3.382 2.711-6.124 6.055-6.124s6.055 2.742 6.055 6.124c0 3.382-2.711 6.124-6.055 6.124-3.344-.001-6.055-2.742-6.055-6.124Zm13.647 19.903c-2.926 0-5.298-2.398-5.298-5.358 0-2.96 2.372-5.358 5.298-5.358s5.299 2.398 5.299 5.358c0 2.96-2.373 5.358-5.299 5.358Zm8.302-14.138c-2.927 0-5.298-2.399-5.298-5.358 0-2.959 2.371-5.358 5.298-5.358 2.926 0 5.298 2.399 5.298 5.358 0 2.958-2.372 5.358-5.298 5.358ZM9.646 15.31h33.687c.843 0 1.432-.681 1.306-1.514L43.023 3.028l-.002-.002C42.771 1.362 41.189 0 39.506 0H13.474c-1.686 0-3.268 1.362-3.517 3.028L8.342 13.795c-.125.833.461 1.515 1.304 1.515ZM43.333 82.671H9.646c-.843 0-1.429.683-1.304 1.516l1.615 10.767c.25 1.666 1.832 3.028 3.516 3.028h26.032c1.684 0 3.266-1.362 3.517-3.026v-.002l1.615-10.767c.128-.833-.461-1.516-1.304-1.516Z" fill="#363636"/></g></symbol><symbol id="cross"><g fill="none"><g clip-path="url(#a)"><path d="m11 1.357-1-1-4.5 4.5L1 .357l-1 1 4.5 4.5-4.5 4.5 1 1 4.5-4.5 4.5 4.5 1-1-4.5-4.5 4.5-4.5Z" fill="#000"/></g></g></symbol><symbol id="delivery"><g fill="none"><g clip-path="url(#a)" fill="#000"><path d="m46.7 15.757-6.5-8.2c-.3-.4-.7-.6-1.2-.6h-8.3v-5.1c0-.8-.7-1.5-1.5-1.5H1.5c-.8 0-1.5.7-1.5 1.5s.7 1.5 1.5 1.5h26.2V25.057H15.8c-.6-1.9-2.4-3.3-4.5-3.3-2.6 0-4.8 2.2-4.8 4.8 0 2.6 2.2 4.8 4.8 4.8 2.1 0 3.9-1.4 4.5-3.3h13.4c.8 0 1.5-.7 1.5-1.5v-16.6h7.6l5.7 7.3v7.9h-2.2c-.6-1.9-2.4-3.3-4.5-3.3-2.6 0-4.8 2.2-4.8 4.8 0 2.6 2.1 4.8 4.8 4.8 2.1 0 3.9-1.4 4.5-3.3h3.7c.8 0 1.5-.7 1.5-1.5v-9.9c0-.4-.1-.7-.3-1Zm-35.4 12.6c-1 0-1.8-.8-1.8-1.8s.8-1.8 1.8-1.8 1.8.8 1.8 1.8-.9 1.8-1.8 1.8Zm26.1 0c-1 0-1.8-.8-1.8-1.8s.8-1.8 1.8-1.8 1.8.8 1.8 1.8-.9 1.8-1.8 1.8Z"/><path d="M19.4 9.957c.8 0 1.5-.7 1.5-1.5s-.7-1.5-1.5-1.5H4.8c-.8 0-1.5.7-1.5 1.5s.7 1.5 1.5 1.5h14.6ZM17.7 15.057c0-.8-.7-1.5-1.5-1.5H1.5c-.8 0-1.5.7-1.5 1.5s.7 1.5 1.5 1.5h14.7c.8 0 1.5-.7 1.5-1.5Z"/></g></g></symbol><symbol id="device-logo"><g fill="none"><g clip-path="url(#a)"><path d="M27.2.357v35.3h-7.6v-2.4c-1.7 1.9-4.1 3.1-7.5 3.1-6.6 0-12.1-5.8-12.1-13.3 0-7.5 5.5-13.3 12.1-13.3 3.4 0 5.9 1.2 7.5 3.1V.357h7.6Zm-7.6 22.7c0-3.8-2.5-6.2-6-6.2s-6 2.4-6 6.2c0 3.8 2.5 6.2 6 6.2 3.5-.1 6-2.4 6-6.2ZM43.7 29.557c2.1 0 3.8-.8 4.8-1.9l6.1 3.5c-2.5 3.4-6.2 5.2-11 5.2-8.6 0-14-5.8-14-13.3 0-7.5 5.4-13.3 13.4-13.3 7.4 0 12.8 5.7 12.8 13.3 0 1.1-.1 2.1-.3 3H37.6c1 2.6 3.3 3.5 6.1 3.5Zm4.6-9.1c-.8-2.9-3.1-4-5.4-4-2.9 0-4.8 1.4-5.5 4h10.9ZM82.1 10.457l-9.3 25.2h-8.6l-9.3-25.2h8.4l5.3 16 5.3-16h8.2ZM83.4 10.457H91v25.2h-7.6v-25.2ZM93.6 23.057c0-7.5 5.7-13.3 13.4-13.3 4.9 0 9.2 2.6 11.4 6.5l-6.6 3.8c-.9-1.8-2.7-2.8-4.9-2.8-3.3 0-5.7 2.4-5.7 5.8 0 3.5 2.4 5.8 5.7 5.8 2.2 0 4.1-1.1 4.9-2.8l6.6 3.8c-2.1 3.9-6.4 6.5-11.4 6.5-7.7 0-13.4-5.8-13.4-13.3ZM132.8 29.557c2.1 0 3.8-.8 4.8-1.9l6.1 3.5c-2.5 3.4-6.2 5.2-11 5.2-8.6 0-14-5.8-14-13.3 0-7.5 5.5-13.3 13.4-13.3 7.4 0 12.8 5.7 12.8 13.3 0 1.1-.1 2.1-.3 3h-17.9c1 2.6 3.3 3.5 6.1 3.5Zm4.7-9.1c-.8-2.9-3.1-4-5.4-4-2.9 0-4.8 1.4-5.5 4h10.9Z" fill="#000"/><path d="M83.4.357v10.1L91 .357h-7.6Z" fill="#510094"/></g></g></symbol><symbol id="divider"><g fill="none"><g clip-path="url(#a)"><path d="M80 .357H0v7h80v-7Z" fill="#000"/></g></g></symbol><symbol id="i"><g fill="none"><g clip-path="url(#a)" fill="#000"><path d="M3 .357H1v2h2v-2ZM3 4.357H1v8h2v-8Z"/></g></g></symbol><symbol id="letter"><g fill="none"><g clip-path="url(#a)"><path d="M7.6 8.357c-.4 0-.6-.1-1-.3L0 4.357v7c0 .6.4 1 .9 1h13.2c.6 0 .9-.4.9-1v-7l-6.5 3.7c-.4.2-.6.3-.9.3Zm6.5-8H.9c-.5 0-.9.5-.9 1v.8l7.5 4.2 7.5-4.2v-.8c0-.5-.4-1-.9-1Z" fill="#000"/></g></g></symbol><symbol id="link"><g fill="none"><g clip-path="url(#a)" fill="#000"><path d="M13.7.357c1 .3 1.4 1 1.3 2.1v4.5c0 1-.7 1.8-1.7 1.8-.9 0-1.7-.7-1.7-1.7v-5c0-.9.5-1.4 1.3-1.7h.8ZM0 13.357c.4-1 1.1-1.3 2.1-1.3h4.5c1.3 0 2.1 1.2 1.6 2.3-.3.7-.8 1-1.5 1H1.6c-.9 0-1.4-.5-1.6-1.3v-.7ZM40 27.357c-.4 1-1.1 1.4-2.1 1.3h-4.4c-1.2 0-2-.9-1.7-2 .2-.7.8-1.3 1.5-1.3h5.1c.9 0 1.3.6 1.6 1.3v.7ZM26.3 40.357c-1-.3-1.4-1-1.3-2.1v-4.5c0-1 .7-1.8 1.7-1.8.9 0 1.7.7 1.7 1.8v4.4c0 1-.3 1.8-1.3 2.1-.3.1-.5.1-.8.1ZM21.3 27.257c-2.3 0-4.3-.7-5.9-2.3-.5-.5-.7-1.1-.4-1.8.2-.7.7-1 1.4-1.1.5-.1 1 .2 1.4.5 1 .9 2.1 1.5 3.4 1.5 1.3 0 2.5-.5 3.4-1.5 3.6-3.5 7.1-7.1 10.6-10.6 1.5-1.5 1.9-3.5 1.1-5.2-.9-2-2.5-3.3-4.8-3.3-1.4 0-2.5.6-3.5 1.6l-5.6 5.6c-.7.7-1.8.7-2.5 0-.6-.7-.6-1.6.1-2.3 1-1 1.9-2 2.9-2.9l2.7-2.7c3.6-3.6 10.8-3 13.2 2.1 1.5 3.1 1 7.3-1.6 9.9-3.4 3.3-6.7 6.7-10 10-1.5 1.7-3.6 2.5-5.9 2.5Z"/><path d="M18.2 14.357c1.8 0 3.8.7 5.4 2.3.5.5.6 1.1.4 1.8-.2.6-.7 1-1.4 1.1-.6.1-1-.1-1.4-.5-.8-.7-1.6-1.3-2.7-1.5-1.7-.3-3 .3-4.2 1.4l-3 3c-2.2 2.2-4.3 4.4-6.5 6.5-.8.8-1.3 1.7-1.5 2.8-.3 1.8.4 3.3 1.7 4.5 2.1 2 4.8 1.9 6.9-.1l4.7-4.7c.5-.5 1.1-.7 1.8-.4.6.2 1 .7 1.1 1.4.1.5-.1.9-.4 1.3-1.7 1.7-3.3 3.5-5.1 5.1-2.5 2.2-5.4 2.5-8.5 1.5-2.9-1-4.6-3.1-5.2-6.2-.5-2.9.2-5.5 2.4-7.7l9-9c1.7-1.7 3.7-2.6 6.5-2.6ZM5 3.657c.5 0 .8.2 1.2.5 1.7 1.7 3.4 3.3 5 5 .7.7.6 1.7 0 2.4-.6.6-1.7.6-2.3 0-1.7-1.7-3.4-3.4-5-5.1-.6-.5-.7-1.1-.4-1.8.2-.6.8-1 1.5-1ZM30 28.657c.5 0 .8.2 1.2.5 1.7 1.7 3.4 3.3 5 5 .7.7.6 1.7 0 2.3-.6.6-1.7.6-2.3 0-1.7-1.7-3.4-3.3-5-5-.5-.5-.6-1.2-.3-1.8.2-.6.7-.9 1.4-1Z"/></g></g></symbol><symbol id="logo_htmlacademy"><g fill="none"><g clip-path="url(#a)" fill="#000"><path d="M0 13.257v2.6h2.5v-2.6H0ZM11.6 4.857c-1.6 0-2.8.7-3.6 1.7h-.1v-6.2h-2v15.5h2v-5.3c0-2.1 1.3-3.6 3.3-3.6 1.8 0 2.9 1.4 2.9 3.2v5.7h2v-6.1c.1-3-1.8-4.9-4.5-4.9ZM26.6 5.157h-4.8v-3.7h-2v3.8h-1.9v2h1.9v6c0 1.7 1 2.7 2.7 2.7h4.1v-2h-3.7c-.7 0-1.1-.4-1.1-1.1v-5.7h4.8v-2ZM41.1 4.957c-1.6 0-2.9.8-3.5 2.1h-.1c-.6-1.2-1.8-2.1-3.4-2.1-1.4 0-2.5.8-3.1 1.8h-.1v-1.6H29v10.6h2v-5.4c0-2 1-3.5 2.6-3.5 1.5 0 2.4 1 2.4 2.6v6.3h2v-5.6c0-2.4 1.4-3.3 2.6-3.3 1.5 0 2.4 1 2.4 2.6v6.3h2v-6.5c.1-2.5-1.4-4.3-3.9-4.3ZM47.8 13.057c0 1.7 1 2.7 2.8 2.7h2v-2h-1.7c-.7 0-1.1-.4-1.1-1.1V.357h-2v12.7ZM28.9 20.057c-.9-1.1-2.2-1.8-3.9-1.8-3.1 0-5.4 2.3-5.4 5.6s2.3 5.6 5.4 5.6c1.8 0 3-.8 3.8-1.9h.1v1.6h2v-10.6h-2v1.5Zm-3.6 7.4c-2.2 0-3.6-1.6-3.6-3.6s1.4-3.6 3.6-3.6 3.6 1.6 3.6 3.6c0 1.9-1.4 3.6-3.6 3.6ZM44.2 22.357c-.5-2.4-2.6-4.1-5.4-4.1-3.4 0-5.6 2.5-5.6 5.6 0 3.1 2.2 5.6 5.6 5.6 2.8 0 4.9-1.8 5.4-4.2h-2.1c-.4 1.3-1.7 2.3-3.3 2.3-2.2 0-3.6-1.6-3.6-3.6s1.4-3.6 3.6-3.6c1.6 0 2.8 1 3.3 2.2h2.1v-.2ZM55.1 20.057c-.9-1.1-2.2-1.8-3.9-1.8-3.1 0-5.4 2.3-5.4 5.6s2.3 5.6 5.4 5.6c1.8 0 3-.8 3.8-1.9h.1v1.6h2v-10.6h-2v1.5Zm-3.6 7.4c-2.2 0-3.6-1.6-3.6-3.6s1.4-3.6 3.6-3.6 3.6 1.6 3.6 3.6c0 1.9-1.5 3.6-3.6 3.6ZM68.7 20.157c-.9-1.1-2.2-1.9-3.9-1.9-3.1 0-5.4 2.3-5.4 5.6s2.2 5.6 5.4 5.6c1.7 0 3-.8 3.8-1.8h.1v1.5h2v-15.4h-2v6.4Zm-3.6 7.3c-2.2 0-3.6-1.6-3.6-3.6s1.4-3.6 3.6-3.6 3.6 1.6 3.6 3.6c-.1 2-1.5 3.6-3.6 3.6ZM78.3 18.257c-3.3 0-5.5 2.5-5.5 5.6 0 3 2.1 5.6 5.5 5.6 2.5 0 4.5-1.3 5.2-3.6h-2.1c-.5 1-1.6 1.6-3 1.6-1.9 0-3.3-1.3-3.4-2.9h8.8c.2-3.6-2-6.3-5.5-6.3Zm0 1.9c1.7 0 3 1 3.3 2.6h-6.5c.3-1.5 1.5-2.6 3.2-2.6ZM98.2 18.257c-1.6 0-2.9.8-3.6 2h-.1c-.6-1.2-1.8-2-3.4-2-1.4 0-2.5.7-3.1 1.8v-1.5h-1.9v10.6h2v-5.4c0-2 1-3.4 2.6-3.5 1.5 0 2.4 1 2.4 2.6v6.3h2v-5.6c0-2.4 1.4-3.3 2.6-3.3 1.5 0 2.4 1 2.4 2.6v6.3h2v-6.5c.1-2.6-1.4-4.4-3.9-4.4ZM109.4 27.357l-3.6-8.9h-2.2l4.8 11.6c-.3.9-.7 1.2-1.7 1.2h-2.5v2h2.5c1.8 0 2.8-.8 3.5-2.6l4.7-12.2h-2.1l-3.4 8.9Z"/></g></g></symbol><symbol id="map-pin"><g fill="none"><g clip-path="url(#a)"><path d="M24 48.357c13.255 0 24-10.745 24-24s-10.745-24-24-24-24 10.745-24 24 10.745 24 24 24Z" fill="#FFE17F"/><path d="M24.1 16.557c-3.1 0-5.6 2.6-5.6 5.8 0 .6.1 1.1.2 1.6.1.4.3.9.5 1.2.8 1.7 2 3.3 4.3 6 .2.2.7.6 1.3-.1 4.8-5.4 4.8-8.1 4.8-8.1v-.7c.1-3.1-2.4-5.7-5.5-5.7Z" fill="#000"/><path d="M24 .357c-13.3 0-24 10.7-24 24 0 11.9 8.7 21.8 20.1 23.7l4 6.3 4-6.4c11.3-1.9 19.9-11.7 19.9-23.6 0-13.3-10.7-24-24-24Zm9 22.4s.1 4.3-8.1 13c-.8.8-1.6 0-1.6 0-3.8-4.4-5.8-6.9-7.1-9.6-.3-.6-.6-1.2-.8-1.9-.2-.8-.4-1.6-.4-2.5 0-5 4.1-9.1 9.1-9.1s9.1 4.1 9.1 9.1c-.1.3-.2.6-.2 1Z" fill="#000"/></g></g></symbol><symbol id="minus"><g fill="none"><path d="M16 7.357H0v2h16v-2Z" fill="#000"/></g></symbol><symbol id="nav-arrow"><g fill="none"><g clip-path="url(#a)"><path d="m3.8 3.457-3-3c-.2-.2-.5-.2-.7 0-.1.2-.1.6 0 .8l2.6 2.6-2.6 2.6c-.1.2-.1.5 0 .7.1.1.3.2.4.2.1 0 .3-.1.4-.1l3-3c0-.1.1-.3.1-.4 0-.1-.1-.3-.2-.4Z" fill="#000"/></g></g></symbol><symbol id="nav-cart"><g fill="none"><g clip-path="url(#a)"><path d="m15.3 5.357-3.5.2-3.2-4.9c-.1-.2-.4-.3-.6-.3-.2 0-.5.1-.6.3l-3.2 4.9H.7c-.4 0-.7.3-.7.7v.2l1.9 6.8c.2.7.7 1.1 1.4 1.1h9.4c.7 0 1.2-.4 1.4-1.1l1.9-6.9v-.2c0-.4-.3-.8-.7-.8ZM8 2.257l2.2 3.2H5.9l2.1-3.2Z" fill="#000"/></g></g></symbol><symbol id="nav-login"><g fill="none"><g clip-path="url(#a)"><path d="M1 12.357h13c-.2-2.6-2.1-4.8-4.7-5.5 1-.6 1.7-1.7 1.7-3 0-1.9-1.6-3.5-3.5-3.5S4 1.957 4 3.857c0 1.3.7 2.4 1.7 3-2.6.7-4.5 2.9-4.7 5.5Z" fill="#000"/></g></g></symbol><symbol id="nav-search"><g fill="none"><g clip-path="url(#a)"><path d="m15.7 14.657-3.1-3.1c.9-1.2 1.4-2.6 1.4-4.2 0-3.9-3.1-7-7-7s-7 3.1-7 7 3.1 7 7 7c1.6 0 3-.5 4.2-1.4l3.1 3.1c.2.2.4.3.7.3.6 0 1-.4 1-1 0-.2-.1-.5-.3-.7ZM2 7.357c0-2.8 2.2-5 5-5s5 2.2 5 5-2.2 5-5 5-5-2.2-5-5Z" fill="#000"/></g></g></symbol><symbol id="nav-sort"><g fill="none"><g clip-path="url(#a)" fill="#000"><path d="M6 .357H4v12h2v-12ZM2 4.357H0v8h2v-8ZM10 3.357H8v9h2v-9Z"/></g></g></symbol><symbol id="plus"><g fill="none"><g clip-path="url(#a)"><path d="M16 7.357H9v-7H7v7H0v2h7v7h2v-7h7v-2Z" fill="#000"/></g></g></symbol><symbol id="slider-arrow"><g fill="none"><g clip-path="url(#a)"><path d="M20 60.357h-3.5l-16.5-30 16.5-30H20l-16.2 30 16.2 30Z" fill="#000"/></g></g></symbol><symbol id="socials-fb"><g fill="none"><g clip-path="url(#a)"><g clip-path="url(#b)"><path d="M6.5 3.357H9v-3H5.6c-2.8 0-3.6 1.7-3.6 4.2v1.8H0v3h2v9h3v-9h3.3l.6-3H5v-1.5c0-.8.3-1.5 1.5-1.5Z" fill="#000"/></g></g></g></symbol><symbol id="socials-in"><g fill="none"><g clip-path="url(#a)"><g clip-path="url(#b)" fill="#000"><path d="M8 10.357a2 2 0 1 0 0-4 2 2 0 0 0 0 4Z"/><path d="M14.7 1.657c-.9-.9-2-1.3-3.4-1.3H4.7c-2.8 0-4.7 1.9-4.7 4.7v6.6c0 1.4.4 2.6 1.4 3.4.9.9 2 1.3 3.3 1.3h6.6c1.4 0 2.6-.4 3.4-1.3.8-.9 1.3-2 1.3-3.4v-6.6c0-1.4-.4-2.6-1.3-3.4ZM8 12.457c-2.2 0-4.1-1.8-4.1-4.1s1.9-4.1 4.1-4.1c2.2 0 4.1 1.8 4.1 4.1s-1.9 4.1-4.1 4.1Zm4.6-7.4c-.7 0-1.3-.5-1.3-1.3s.5-1.3 1.3-1.3c.7 0 1.3.6 1.3 1.3 0 .7-.6 1.3-1.3 1.3Z"/></g></g></g></symbol><symbol id="socials-tw"><g fill="none"><g clip-path="url(#a)"><g clip-path="url(#b)"><path d="M10.347.511c1.6-.498 2.773.3 3.413 1.096.533-.2 1.173-.398 1.813-.598 0 .797-.533 1.395-.853 1.594.747.2 1.28-.398 1.28-.398-.107.896-.96 1.693-1.493 1.892-.214 6.274-2.987 10.358-9.494 10.258h-.426c-.32 0-3.947-.398-4.587-1.793 2.133.2 3.627-.398 4.373-1.095-.853-.299-2.56-.399-2.773-2.789.32.2.533.299 1.173.2C1.6 8.08.32 7.382.427 5.391c.32.298.96.498 1.28.398-.64-.2-1.92-3.087-.854-4.581 1.707 1.693 3.52 3.386 6.72 3.485C7.787 2.603 8.64 1.21 10.347.511Z" fill="#000"/></g></g></g></symbol><symbol id="thumbs-up"><g fill="none"><g clip-path="url(#a)" fill="#000"><path d="M9.9 6.457h6.4c.7 0 1.2.3 1.5.9.2.4.2.8 0 1.3-.6 1.9-1.3 3.8-1.9 5.7-.1.3-.2.6-.3.8-.2.7-.8 1.1-1.5 1.1H7.7c-.3 0-.5 0-.8-.1-1-.3-1.8-1.2-1.8-2.3v-7.2c0-.2 0-.3.1-.4 1.7-1.9 3.3-3.8 4.9-5.8 0-.1.1-.1.2-.1 1.1.6 1.7 2 1.1 3.2-.4.9-.9 1.8-1.3 2.6-.1.1-.1.2-.2.3ZM3.9 11.057v4.3c0 .2-.1.2-.2.2H.2c-.2 0-.2 0-.2-.2v-8.7c0-.2.1-.2.2-.2h3.5c.2 0 .2.1.2.2v4.4Z"/></g></g></symbol><symbol id="tick"><g fill="none"><g clip-path="url(#a)"><path d="m10 .357-6.9 6.6-3.1-3v3.3l3.2 3.1 6.8-6.7v-3.3Z" fill="#000"/></g></g></symbol><symbol id="timeline-triangle"><g fill="none"><g clip-path="url(#a)"><path d="M0 13.357v-13h13l-13 13Z" fill="#000"/></g></g></symbol><symbol id="triangle"><g fill="none"><g clip-path="url(#a)"><path d="M14 6.357H0l7-6 7 6Z" fill="#000"/></g></g></symbol></svg>